<mxfile host="65bd71144e">
    <diagram name="Page-1" id="0jMz_-cW_84kUPNI5Be5">
        <mxGraphModel dx="9190" dy="4267" grid="1" gridSize="10" guides="1" tooltips="1" connect="1" arrows="1" fold="1" page="1" pageScale="1" pageWidth="850" pageHeight="1100" math="0" shadow="0">
            <root>
                <mxCell id="0"/>
                <mxCell id="1" parent="0"/>
                <mxCell id="rwfCNAX4o9cNVtw4489R-1" value="" style="rounded=0;whiteSpace=wrap;html=1;fontSize=12;" parent="1" vertex="1">
                    <mxGeometry x="-190" y="-323" width="1040" height="2193" as="geometry"/>
                </mxCell>
                <mxCell id="WxxNGjfml7JEy1HpZVWg-34" style="edgeStyle=orthogonalEdgeStyle;rounded=0;orthogonalLoop=1;jettySize=auto;html=1;exitX=1;exitY=1;exitDx=0;exitDy=0;exitPerimeter=0;entryX=0.5;entryY=0;entryDx=0;entryDy=0;fontSize=12;" parent="1" source="rwfCNAX4o9cNVtw4489R-2" target="WxxNGjfml7JEy1HpZVWg-17" edge="1">
                    <mxGeometry relative="1" as="geometry">
                        <Array as="points">
                            <mxPoint x="-320" y="1130"/>
                            <mxPoint x="329" y="1130"/>
                        </Array>
                    </mxGeometry>
                </mxCell>
                <mxCell id="WxxNGjfml7JEy1HpZVWg-35" style="edgeStyle=orthogonalEdgeStyle;rounded=0;orthogonalLoop=1;jettySize=auto;html=1;exitX=1;exitY=1;exitDx=0;exitDy=0;exitPerimeter=0;entryX=0.5;entryY=0;entryDx=0;entryDy=0;fontSize=12;" parent="1" source="rwfCNAX4o9cNVtw4489R-2" target="OdSCFhlOYcghcNEiFsWY-20" edge="1">
                    <mxGeometry relative="1" as="geometry">
                        <Array as="points">
                            <mxPoint x="-320" y="1250"/>
                            <mxPoint x="329" y="1250"/>
                        </Array>
                        <mxPoint x="329" y="1290" as="targetPoint"/>
                    </mxGeometry>
                </mxCell>
                <mxCell id="rwfCNAX4o9cNVtw4489R-2" value="&lt;font style=&quot;font-size: 42px;&quot;&gt;Reader&lt;/font&gt;" style="shape=umlActor;verticalLabelPosition=bottom;verticalAlign=top;html=1;outlineConnect=0;fontSize=12;" parent="1" vertex="1">
                    <mxGeometry x="-710" y="310" width="390" height="790" as="geometry"/>
                </mxCell>
                <mxCell id="rwfCNAX4o9cNVtw4489R-3" value="LMS" style="text;html=1;align=center;verticalAlign=middle;whiteSpace=wrap;rounded=0;fontSize=12;" parent="1" vertex="1">
                    <mxGeometry x="290" y="-280" width="60" height="30" as="geometry"/>
                </mxCell>
                <mxCell id="rwfCNAX4o9cNVtw4489R-5" value="Search for Books" style="ellipse;whiteSpace=wrap;html=1;fontSize=12;" parent="1" vertex="1">
                    <mxGeometry x="269" y="117" width="120" height="80" as="geometry"/>
                </mxCell>
                <mxCell id="rwfCNAX4o9cNVtw4489R-6" value="Search by Title, Author or ISBN" style="ellipse;whiteSpace=wrap;html=1;fontSize=12;" parent="1" vertex="1">
                    <mxGeometry x="344" y="237" width="120" height="80" as="geometry"/>
                </mxCell>
                <mxCell id="rwfCNAX4o9cNVtw4489R-7" value="View Book Details" style="ellipse;whiteSpace=wrap;html=1;fontSize=12;" parent="1" vertex="1">
                    <mxGeometry x="194" y="237" width="120" height="80" as="geometry"/>
                </mxCell>
                <mxCell id="rwfCNAX4o9cNVtw4489R-8" value="Borrow Books" style="ellipse;whiteSpace=wrap;html=1;fontSize=12;" parent="1" vertex="1">
                    <mxGeometry x="269" y="369.94" width="120" height="80" as="geometry"/>
                </mxCell>
                <mxCell id="rwfCNAX4o9cNVtw4489R-9" value="" style="endArrow=none;html=1;rounded=0;exitX=0;exitY=1;exitDx=0;exitDy=0;entryX=0.5;entryY=0;entryDx=0;entryDy=0;endFill=0;startArrow=block;startFill=0;fontSize=12;" parent="1" source="rwfCNAX4o9cNVtw4489R-5" target="rwfCNAX4o9cNVtw4489R-7" edge="1">
                    <mxGeometry width="50" height="50" relative="1" as="geometry">
                        <mxPoint x="289" y="-63" as="sourcePoint"/>
                        <mxPoint x="124" y="17" as="targetPoint"/>
                    </mxGeometry>
                </mxCell>
                <mxCell id="rwfCNAX4o9cNVtw4489R-10" value="" style="edgeLabel;html=1;align=center;verticalAlign=middle;resizable=0;points=[];fontSize=12;" parent="rwfCNAX4o9cNVtw4489R-9" vertex="1" connectable="0">
                    <mxGeometry x="0.1366" relative="1" as="geometry">
                        <mxPoint as="offset"/>
                    </mxGeometry>
                </mxCell>
                <mxCell id="rwfCNAX4o9cNVtw4489R-11" value="" style="endArrow=none;html=1;rounded=0;exitX=1;exitY=1;exitDx=0;exitDy=0;entryX=0.5;entryY=0;entryDx=0;entryDy=0;endFill=0;startArrow=block;startFill=0;fontSize=12;" parent="1" source="rwfCNAX4o9cNVtw4489R-5" target="rwfCNAX4o9cNVtw4489R-6" edge="1">
                    <mxGeometry width="50" height="50" relative="1" as="geometry">
                        <mxPoint x="309" y="-43" as="sourcePoint"/>
                        <mxPoint x="144" y="37" as="targetPoint"/>
                    </mxGeometry>
                </mxCell>
                <mxCell id="rwfCNAX4o9cNVtw4489R-12" value="" style="edgeLabel;html=1;align=center;verticalAlign=middle;resizable=0;points=[];fontSize=12;" parent="rwfCNAX4o9cNVtw4489R-11" vertex="1" connectable="0">
                    <mxGeometry x="0.1397" relative="1" as="geometry">
                        <mxPoint as="offset"/>
                    </mxGeometry>
                </mxCell>
                <mxCell id="rwfCNAX4o9cNVtw4489R-13" value="View Borrowing History" style="ellipse;whiteSpace=wrap;html=1;fontSize=12;" parent="1" vertex="1">
                    <mxGeometry x="269" y="1000" width="120" height="80" as="geometry"/>
                </mxCell>
                <mxCell id="rwfCNAX4o9cNVtw4489R-14" value="Return a Book" style="ellipse;whiteSpace=wrap;html=1;fontSize=12;" parent="1" vertex="1">
                    <mxGeometry x="269" y="616.67" width="120" height="80" as="geometry"/>
                </mxCell>
                <mxCell id="rwfCNAX4o9cNVtw4489R-15" value="Login" style="ellipse;whiteSpace=wrap;html=1;fontSize=12;" parent="1" vertex="1">
                    <mxGeometry x="270" y="-9.939999999999998" width="120" height="80" as="geometry"/>
                </mxCell>
                <mxCell id="rwfCNAX4o9cNVtw4489R-23" value="List of all Borrowed Books with Return Dates" style="ellipse;whiteSpace=wrap;html=1;fontSize=12;" parent="1" vertex="1">
                    <mxGeometry x="115" y="1040" width="120" height="80" as="geometry"/>
                </mxCell>
                <mxCell id="rwfCNAX4o9cNVtw4489R-37" value="Manage Personal Account" style="ellipse;whiteSpace=wrap;html=1;fontSize=12;" parent="1" vertex="1">
                    <mxGeometry x="269" y="1517" width="120" height="80" as="geometry"/>
                </mxCell>
                <mxCell id="rwfCNAX4o9cNVtw4489R-59" value="" style="endArrow=classic;html=1;rounded=0;entryX=0.5;entryY=0;entryDx=0;entryDy=0;edgeStyle=orthogonalEdgeStyle;exitX=1;exitY=0.3333333333333333;exitDx=0;exitDy=0;exitPerimeter=0;fontSize=12;" parent="1" target="rwfCNAX4o9cNVtw4489R-15" edge="1">
                    <mxGeometry width="50" height="50" relative="1" as="geometry">
                        <mxPoint x="-319" y="483.39333333333303" as="sourcePoint"/>
                        <mxPoint x="21" y="680.06" as="targetPoint"/>
                        <Array as="points">
                            <mxPoint x="-319" y="-39.94"/>
                            <mxPoint x="330" y="-39.94"/>
                        </Array>
                    </mxGeometry>
                </mxCell>
                <mxCell id="rwfCNAX4o9cNVtw4489R-61" value="" style="endArrow=classic;html=1;rounded=0;entryX=0.5;entryY=0;entryDx=0;entryDy=0;exitX=1;exitY=0.3333333333333333;exitDx=0;exitDy=0;exitPerimeter=0;edgeStyle=orthogonalEdgeStyle;fontSize=12;" parent="1" target="rwfCNAX4o9cNVtw4489R-5" edge="1">
                    <mxGeometry width="50" height="50" relative="1" as="geometry">
                        <mxPoint x="-320" y="490.33333333333303" as="sourcePoint"/>
                        <mxPoint x="175" y="17" as="targetPoint"/>
                        <Array as="points">
                            <mxPoint x="-320" y="87"/>
                            <mxPoint x="329" y="87"/>
                        </Array>
                    </mxGeometry>
                </mxCell>
                <mxCell id="rwfCNAX4o9cNVtw4489R-62" value="" style="endArrow=classic;html=1;rounded=0;entryX=0.5;entryY=0;entryDx=0;entryDy=0;exitX=1;exitY=0.3333333333333333;exitDx=0;exitDy=0;exitPerimeter=0;edgeStyle=orthogonalEdgeStyle;fontSize=12;" parent="1" target="rwfCNAX4o9cNVtw4489R-8" edge="1">
                    <mxGeometry width="50" height="50" relative="1" as="geometry">
                        <mxPoint x="-320" y="503.273333333333" as="sourcePoint"/>
                        <mxPoint x="185" y="39.94" as="targetPoint"/>
                        <Array as="points">
                            <mxPoint x="-320" y="339.94"/>
                            <mxPoint x="329" y="339.94"/>
                        </Array>
                    </mxGeometry>
                </mxCell>
                <mxCell id="rwfCNAX4o9cNVtw4489R-63" value="" style="endArrow=classic;html=1;rounded=0;entryX=0.5;entryY=0;entryDx=0;entryDy=0;exitX=1;exitY=0.3333333333333333;exitDx=0;exitDy=0;exitPerimeter=0;edgeStyle=orthogonalEdgeStyle;fontSize=12;" parent="1" target="rwfCNAX4o9cNVtw4489R-14" edge="1">
                    <mxGeometry width="50" height="50" relative="1" as="geometry">
                        <mxPoint x="-320" y="510.00333333333305" as="sourcePoint"/>
                        <mxPoint x="225" y="216.67000000000002" as="targetPoint"/>
                        <Array as="points">
                            <mxPoint x="-320" y="586.67"/>
                            <mxPoint x="329" y="586.67"/>
                        </Array>
                    </mxGeometry>
                </mxCell>
                <mxCell id="rwfCNAX4o9cNVtw4489R-64" value="" style="endArrow=classic;html=1;rounded=0;entryX=0.5;entryY=0;entryDx=0;entryDy=0;exitX=1;exitY=0.3333333333333333;exitDx=0;exitDy=0;exitPerimeter=0;edgeStyle=orthogonalEdgeStyle;fontSize=12;" parent="1" source="rwfCNAX4o9cNVtw4489R-2" target="rwfCNAX4o9cNVtw4489R-13" edge="1">
                    <mxGeometry width="50" height="50" relative="1" as="geometry">
                        <mxPoint x="-208" y="608.3333333333335" as="sourcePoint"/>
                        <mxPoint x="237" y="330" as="targetPoint"/>
                        <Array as="points">
                            <mxPoint x="-320" y="970"/>
                            <mxPoint x="329" y="970"/>
                        </Array>
                    </mxGeometry>
                </mxCell>
                <mxCell id="rwfCNAX4o9cNVtw4489R-65" value="" style="endArrow=classic;html=1;rounded=0;entryX=0.5;entryY=0;entryDx=0;entryDy=0;exitX=1;exitY=1;exitDx=0;exitDy=0;exitPerimeter=0;edgeStyle=orthogonalEdgeStyle;fontSize=12;" parent="1" source="rwfCNAX4o9cNVtw4489R-2" target="rwfCNAX4o9cNVtw4489R-37" edge="1">
                    <mxGeometry width="50" height="50" relative="1" as="geometry">
                        <mxPoint x="-209" y="608.3333333333335" as="sourcePoint"/>
                        <mxPoint x="238.5" y="390" as="targetPoint"/>
                        <Array as="points">
                            <mxPoint x="-320" y="1490"/>
                            <mxPoint x="329" y="1490"/>
                        </Array>
                    </mxGeometry>
                </mxCell>
                <mxCell id="rwfCNAX4o9cNVtw4489R-69" value="Check Previous Loan History" style="ellipse;whiteSpace=wrap;html=1;fontSize=12;" parent="1" vertex="1">
                    <mxGeometry x="344" y="491.94" width="120" height="80" as="geometry"/>
                </mxCell>
                <mxCell id="rwfCNAX4o9cNVtw4489R-70" value="Request to Borrow a Book" style="ellipse;whiteSpace=wrap;html=1;fontSize=12;" parent="1" vertex="1">
                    <mxGeometry x="194" y="491.94" width="120" height="80" as="geometry"/>
                </mxCell>
                <mxCell id="rwfCNAX4o9cNVtw4489R-71" value="" style="endArrow=none;html=1;rounded=0;exitX=0;exitY=1;exitDx=0;exitDy=0;entryX=0.5;entryY=0;entryDx=0;entryDy=0;endFill=0;startArrow=block;startFill=0;fontSize=12;" parent="1" source="rwfCNAX4o9cNVtw4489R-8" target="rwfCNAX4o9cNVtw4489R-70" edge="1">
                    <mxGeometry width="50" height="50" relative="1" as="geometry">
                        <mxPoint x="287" y="439.94" as="sourcePoint"/>
                        <mxPoint x="124" y="271.94" as="targetPoint"/>
                    </mxGeometry>
                </mxCell>
                <mxCell id="rwfCNAX4o9cNVtw4489R-72" value="" style="edgeLabel;html=1;align=center;verticalAlign=middle;resizable=0;points=[];fontSize=12;" parent="rwfCNAX4o9cNVtw4489R-71" vertex="1" connectable="0">
                    <mxGeometry x="0.1366" relative="1" as="geometry">
                        <mxPoint as="offset"/>
                    </mxGeometry>
                </mxCell>
                <mxCell id="rwfCNAX4o9cNVtw4489R-73" value="" style="endArrow=none;html=1;rounded=0;exitX=1;exitY=1;exitDx=0;exitDy=0;entryX=0.5;entryY=0;entryDx=0;entryDy=0;endFill=0;startArrow=block;startFill=0;fontSize=12;" parent="1" source="rwfCNAX4o9cNVtw4489R-8" target="rwfCNAX4o9cNVtw4489R-69" edge="1">
                    <mxGeometry width="50" height="50" relative="1" as="geometry">
                        <mxPoint x="371" y="439.94" as="sourcePoint"/>
                        <mxPoint x="144" y="291.94" as="targetPoint"/>
                    </mxGeometry>
                </mxCell>
                <mxCell id="rwfCNAX4o9cNVtw4489R-74" value="" style="edgeLabel;html=1;align=center;verticalAlign=middle;resizable=0;points=[];fontSize=12;" parent="rwfCNAX4o9cNVtw4489R-73" vertex="1" connectable="0">
                    <mxGeometry x="0.1397" relative="1" as="geometry">
                        <mxPoint as="offset"/>
                    </mxGeometry>
                </mxCell>
                <mxCell id="rwfCNAX4o9cNVtw4489R-75" value="Know The Status of Fines in Case of Delay" style="ellipse;whiteSpace=wrap;html=1;fontSize=12;" parent="1" vertex="1">
                    <mxGeometry x="400" y="720" width="120" height="80" as="geometry"/>
                </mxCell>
                <mxCell id="rwfCNAX4o9cNVtw4489R-76" value="Return a Borrowed Book" style="ellipse;whiteSpace=wrap;html=1;fontSize=12;" parent="1" vertex="1">
                    <mxGeometry x="120" y="720" width="120" height="80" as="geometry"/>
                </mxCell>
                <mxCell id="rwfCNAX4o9cNVtw4489R-77" value="" style="endArrow=none;html=1;rounded=0;exitX=0;exitY=1;exitDx=0;exitDy=0;entryX=0.5;entryY=0;entryDx=0;entryDy=0;endFill=0;startArrow=block;startFill=0;fontSize=12;" parent="1" source="rwfCNAX4o9cNVtw4489R-14" target="rwfCNAX4o9cNVtw4489R-76" edge="1">
                    <mxGeometry width="50" height="50" relative="1" as="geometry">
                        <mxPoint x="287" y="686.67" as="sourcePoint"/>
                        <mxPoint x="124" y="520.67" as="targetPoint"/>
                    </mxGeometry>
                </mxCell>
                <mxCell id="rwfCNAX4o9cNVtw4489R-78" value="" style="edgeLabel;html=1;align=center;verticalAlign=middle;resizable=0;points=[];fontSize=12;" parent="rwfCNAX4o9cNVtw4489R-77" vertex="1" connectable="0">
                    <mxGeometry x="0.1366" relative="1" as="geometry">
                        <mxPoint as="offset"/>
                    </mxGeometry>
                </mxCell>
                <mxCell id="rwfCNAX4o9cNVtw4489R-79" value="" style="endArrow=none;html=1;rounded=0;exitX=1;exitY=1;exitDx=0;exitDy=0;entryX=0.5;entryY=0;entryDx=0;entryDy=0;endFill=0;startArrow=block;startFill=0;fontSize=12;" parent="1" source="rwfCNAX4o9cNVtw4489R-14" target="rwfCNAX4o9cNVtw4489R-75" edge="1">
                    <mxGeometry width="50" height="50" relative="1" as="geometry">
                        <mxPoint x="371" y="686.67" as="sourcePoint"/>
                        <mxPoint x="144" y="540.67" as="targetPoint"/>
                    </mxGeometry>
                </mxCell>
                <mxCell id="rwfCNAX4o9cNVtw4489R-80" value="" style="edgeLabel;html=1;align=center;verticalAlign=middle;resizable=0;points=[];fontSize=12;" parent="rwfCNAX4o9cNVtw4489R-79" vertex="1" connectable="0">
                    <mxGeometry x="0.1397" relative="1" as="geometry">
                        <mxPoint as="offset"/>
                    </mxGeometry>
                </mxCell>
                <mxCell id="rwfCNAX4o9cNVtw4489R-81" value="Edit Password" style="ellipse;whiteSpace=wrap;html=1;fontSize=12;" parent="1" vertex="1">
                    <mxGeometry x="344" y="1639" width="120" height="80" as="geometry"/>
                </mxCell>
                <mxCell id="rwfCNAX4o9cNVtw4489R-82" value="Edit Personal Account Data" style="ellipse;whiteSpace=wrap;html=1;fontSize=12;" parent="1" vertex="1">
                    <mxGeometry x="194" y="1639" width="120" height="80" as="geometry"/>
                </mxCell>
                <mxCell id="rwfCNAX4o9cNVtw4489R-83" value="" style="endArrow=none;html=1;rounded=0;exitX=1;exitY=1;exitDx=0;exitDy=0;entryX=0.5;entryY=0;entryDx=0;entryDy=0;endFill=0;startArrow=block;startFill=0;fontSize=12;" parent="1" source="rwfCNAX4o9cNVtw4489R-37" target="rwfCNAX4o9cNVtw4489R-81" edge="1">
                    <mxGeometry width="50" height="50" relative="1" as="geometry">
                        <mxPoint x="371" y="1587" as="sourcePoint"/>
                        <mxPoint x="114" y="1409" as="targetPoint"/>
                    </mxGeometry>
                </mxCell>
                <mxCell id="rwfCNAX4o9cNVtw4489R-84" value="" style="edgeLabel;html=1;align=center;verticalAlign=middle;resizable=0;points=[];fontSize=12;" parent="rwfCNAX4o9cNVtw4489R-83" vertex="1" connectable="0">
                    <mxGeometry x="0.1169" y="1" relative="1" as="geometry">
                        <mxPoint as="offset"/>
                    </mxGeometry>
                </mxCell>
                <mxCell id="rwfCNAX4o9cNVtw4489R-85" value="" style="endArrow=none;html=1;rounded=0;exitX=0;exitY=1;exitDx=0;exitDy=0;entryX=0.5;entryY=0;entryDx=0;entryDy=0;endFill=0;startArrow=block;startFill=0;fontSize=12;" parent="1" source="rwfCNAX4o9cNVtw4489R-37" target="rwfCNAX4o9cNVtw4489R-82" edge="1">
                    <mxGeometry width="50" height="50" relative="1" as="geometry">
                        <mxPoint x="287" y="1587" as="sourcePoint"/>
                        <mxPoint x="124" y="1419" as="targetPoint"/>
                    </mxGeometry>
                </mxCell>
                <mxCell id="rwfCNAX4o9cNVtw4489R-86" value="" style="edgeLabel;html=1;align=center;verticalAlign=middle;resizable=0;points=[];fontSize=12;" parent="rwfCNAX4o9cNVtw4489R-85" vertex="1" connectable="0">
                    <mxGeometry x="0.1467" y="-1" relative="1" as="geometry">
                        <mxPoint as="offset"/>
                    </mxGeometry>
                </mxCell>
                <mxCell id="rwfCNAX4o9cNVtw4489R-87" value="Logout" style="ellipse;whiteSpace=wrap;html=1;fontSize=12;" parent="1" vertex="1">
                    <mxGeometry x="269" y="1757" width="120" height="80" as="geometry"/>
                </mxCell>
                <mxCell id="rwfCNAX4o9cNVtw4489R-88" value="" style="endArrow=classic;html=1;rounded=0;entryX=0.5;entryY=0;entryDx=0;entryDy=0;exitX=1;exitY=1;exitDx=0;exitDy=0;exitPerimeter=0;edgeStyle=orthogonalEdgeStyle;fontSize=12;" parent="1" source="rwfCNAX4o9cNVtw4489R-2" target="rwfCNAX4o9cNVtw4489R-87" edge="1">
                    <mxGeometry width="50" height="50" relative="1" as="geometry">
                        <mxPoint x="-208" y="1135" as="sourcePoint"/>
                        <mxPoint x="-103" y="170" as="targetPoint"/>
                        <Array as="points">
                            <mxPoint x="-320" y="1730"/>
                            <mxPoint x="329" y="1730"/>
                        </Array>
                    </mxGeometry>
                </mxCell>
                <mxCell id="WxxNGjfml7JEy1HpZVWg-17" value="View Book Based on Recommendation" style="ellipse;whiteSpace=wrap;html=1;fontSize=12;" parent="1" vertex="1">
                    <mxGeometry x="269" y="1160" width="120" height="80" as="geometry"/>
                </mxCell>
                <mxCell id="OdSCFhlOYcghcNEiFsWY-20" value="&lt;span style=&quot;font-size: 12px;&quot;&gt;Manage Group (Forum)&lt;/span&gt;" style="ellipse;whiteSpace=wrap;html=1;fontSize=12;" parent="1" vertex="1">
                    <mxGeometry x="270" y="1280" width="120" height="80" as="geometry"/>
                </mxCell>
                <mxCell id="OdSCFhlOYcghcNEiFsWY-21" value="&lt;span style=&quot;font-size: 12px;&quot;&gt;Request Join to Group&lt;/span&gt;" style="ellipse;whiteSpace=wrap;html=1;fontSize=12;" parent="1" vertex="1">
                    <mxGeometry x="425" y="1400" width="120" height="80" as="geometry"/>
                </mxCell>
                <mxCell id="OdSCFhlOYcghcNEiFsWY-22" value="&lt;font style=&quot;font-size: 12px;&quot;&gt;Approve or Reject Member Request&lt;/font&gt;" style="ellipse;whiteSpace=wrap;html=1;fontSize=12;" parent="1" vertex="1">
                    <mxGeometry x="575" y="1400" width="120" height="80" as="geometry"/>
                </mxCell>
                <mxCell id="OdSCFhlOYcghcNEiFsWY-23" value="&lt;span style=&quot;font-size: 12px;&quot;&gt;Delete His Group&lt;/span&gt;" style="ellipse;whiteSpace=wrap;html=1;fontSize=12;" parent="1" vertex="1">
                    <mxGeometry x="270" y="1400" width="120" height="80" as="geometry"/>
                </mxCell>
                <mxCell id="OdSCFhlOYcghcNEiFsWY-24" value="&lt;span style=&quot;font-size: 12px;&quot;&gt;Create Group&lt;/span&gt;" style="ellipse;whiteSpace=wrap;html=1;fontSize=12;" parent="1" vertex="1">
                    <mxGeometry x="-185" y="1400" width="120" height="80" as="geometry"/>
                </mxCell>
                <mxCell id="OdSCFhlOYcghcNEiFsWY-25" value="&lt;span style=&quot;font-size: 12px;&quot;&gt;Add Book to Group&lt;/span&gt;" style="ellipse;whiteSpace=wrap;html=1;fontSize=12;" parent="1" vertex="1">
                    <mxGeometry x="-35" y="1400" width="120" height="80" as="geometry"/>
                </mxCell>
                <mxCell id="OdSCFhlOYcghcNEiFsWY-26" value="&lt;span style=&quot;font-size: 12px;&quot;&gt;Delete Book from Group&lt;/span&gt;" style="ellipse;whiteSpace=wrap;html=1;fontSize=12;" parent="1" vertex="1">
                    <mxGeometry x="115" y="1400" width="120" height="80" as="geometry"/>
                </mxCell>
                <mxCell id="OdSCFhlOYcghcNEiFsWY-27" value="&lt;font style=&quot;font-size: 12px;&quot;&gt;Kick Member from Group&lt;/font&gt;" style="ellipse;whiteSpace=wrap;html=1;fontSize=12;" parent="1" vertex="1">
                    <mxGeometry x="725" y="1400" width="120" height="80" as="geometry"/>
                </mxCell>
                <mxCell id="OdSCFhlOYcghcNEiFsWY-28" value="" style="endArrow=none;html=1;rounded=0;exitX=0;exitY=0;exitDx=0;exitDy=0;entryX=0.5;entryY=0;entryDx=0;entryDy=0;endFill=0;startArrow=block;startFill=0;fontSize=12;" parent="1" source="OdSCFhlOYcghcNEiFsWY-20" target="OdSCFhlOYcghcNEiFsWY-24" edge="1">
                    <mxGeometry width="50" height="50" relative="1" as="geometry">
                        <mxPoint x="288" y="1292" as="sourcePoint"/>
                        <mxPoint x="115" y="1170" as="targetPoint"/>
                    </mxGeometry>
                </mxCell>
                <mxCell id="OdSCFhlOYcghcNEiFsWY-30" value="" style="endArrow=none;html=1;rounded=0;exitX=1;exitY=1;exitDx=0;exitDy=0;entryX=0.5;entryY=0;entryDx=0;entryDy=0;endFill=0;startArrow=block;startFill=0;fontSize=12;" parent="1" source="OdSCFhlOYcghcNEiFsWY-20" target="OdSCFhlOYcghcNEiFsWY-21" edge="1">
                    <mxGeometry width="50" height="50" relative="1" as="geometry">
                        <mxPoint x="372" y="1348" as="sourcePoint"/>
                        <mxPoint x="125" y="1180" as="targetPoint"/>
                    </mxGeometry>
                </mxCell>
                <mxCell id="OdSCFhlOYcghcNEiFsWY-32" value="" style="endArrow=none;html=1;rounded=0;exitX=1;exitY=0.5;exitDx=0;exitDy=0;entryX=0.5;entryY=0;entryDx=0;entryDy=0;endFill=0;startArrow=block;startFill=0;fontSize=12;" parent="1" source="OdSCFhlOYcghcNEiFsWY-20" target="OdSCFhlOYcghcNEiFsWY-22" edge="1">
                    <mxGeometry width="50" height="50" relative="1" as="geometry">
                        <mxPoint x="390" y="1320" as="sourcePoint"/>
                        <mxPoint x="635" y="1390" as="targetPoint"/>
                    </mxGeometry>
                </mxCell>
                <mxCell id="OdSCFhlOYcghcNEiFsWY-34" value="" style="endArrow=none;html=1;rounded=0;exitX=1;exitY=0;exitDx=0;exitDy=0;entryX=0.5;entryY=0;entryDx=0;entryDy=0;endFill=0;startArrow=block;startFill=0;fontSize=12;" parent="1" source="OdSCFhlOYcghcNEiFsWY-20" target="OdSCFhlOYcghcNEiFsWY-27" edge="1">
                    <mxGeometry width="50" height="50" relative="1" as="geometry">
                        <mxPoint x="372" y="1292" as="sourcePoint"/>
                        <mxPoint x="145" y="1200" as="targetPoint"/>
                    </mxGeometry>
                </mxCell>
                <mxCell id="OdSCFhlOYcghcNEiFsWY-36" value="" style="endArrow=none;html=1;rounded=0;exitX=0.5;exitY=1;exitDx=0;exitDy=0;entryX=0.5;entryY=0;entryDx=0;entryDy=0;edgeStyle=orthogonalEdgeStyle;curved=1;endFill=0;startArrow=block;startFill=0;fontSize=12;" parent="1" source="OdSCFhlOYcghcNEiFsWY-20" target="OdSCFhlOYcghcNEiFsWY-23" edge="1">
                    <mxGeometry width="50" height="50" relative="1" as="geometry">
                        <mxPoint x="330" y="1360" as="sourcePoint"/>
                        <mxPoint x="155" y="1210" as="targetPoint"/>
                    </mxGeometry>
                </mxCell>
                <mxCell id="OdSCFhlOYcghcNEiFsWY-38" value="" style="endArrow=none;html=1;rounded=0;exitX=0;exitY=1;exitDx=0;exitDy=0;entryX=0.5;entryY=0;entryDx=0;entryDy=0;endFill=0;startArrow=block;startFill=0;fontSize=12;" parent="1" source="OdSCFhlOYcghcNEiFsWY-20" target="OdSCFhlOYcghcNEiFsWY-26" edge="1">
                    <mxGeometry width="50" height="50" relative="1" as="geometry">
                        <mxPoint x="288" y="1348" as="sourcePoint"/>
                        <mxPoint x="165" y="1220" as="targetPoint"/>
                    </mxGeometry>
                </mxCell>
                <mxCell id="OdSCFhlOYcghcNEiFsWY-40" value="" style="endArrow=none;html=1;rounded=0;exitX=0;exitY=0.5;exitDx=0;exitDy=0;entryX=0.5;entryY=0;entryDx=0;entryDy=0;endFill=0;startArrow=block;startFill=0;fontSize=12;" parent="1" source="OdSCFhlOYcghcNEiFsWY-20" target="OdSCFhlOYcghcNEiFsWY-25" edge="1">
                    <mxGeometry width="50" height="50" relative="1" as="geometry">
                        <mxPoint x="270" y="1320" as="sourcePoint"/>
                        <mxPoint x="175" y="1230" as="targetPoint"/>
                    </mxGeometry>
                </mxCell>
                <mxCell id="2" value="Signup" style="ellipse;whiteSpace=wrap;html=1;fontSize=12;" vertex="1" parent="1">
                    <mxGeometry x="269" y="-140" width="120" height="80" as="geometry"/>
                </mxCell>
                <mxCell id="3" value="" style="endArrow=classic;html=1;rounded=0;entryX=0.5;entryY=0;entryDx=0;entryDy=0;edgeStyle=orthogonalEdgeStyle;exitX=1;exitY=0.3333333333333333;exitDx=0;exitDy=0;exitPerimeter=0;fontSize=12;" edge="1" parent="1">
                    <mxGeometry width="50" height="50" relative="1" as="geometry">
                        <mxPoint x="-320" y="353.06" as="sourcePoint"/>
                        <mxPoint x="329" y="-139.94" as="targetPoint"/>
                        <Array as="points">
                            <mxPoint x="-320" y="-169.94"/>
                            <mxPoint x="329" y="-169.94"/>
                        </Array>
                    </mxGeometry>
                </mxCell>
                <mxCell id="4" value="chooseFavorite" style="ellipse;whiteSpace=wrap;html=1;fontSize=12;" vertex="1" parent="1">
                    <mxGeometry x="450" y="-90" width="120" height="80" as="geometry"/>
                </mxCell>
                <mxCell id="7" value="" style="endArrow=none;html=1;rounded=0;endFill=0;startArrow=block;startFill=0;fontSize=12;exitX=1;exitY=0.5;exitDx=0;exitDy=0;entryX=0;entryY=0;entryDx=0;entryDy=0;" edge="1" parent="1" source="2" target="4">
                    <mxGeometry width="50" height="50" relative="1" as="geometry">
                        <mxPoint x="606.333333333333" y="-270.0000000000002" as="sourcePoint"/>
                        <mxPoint x="520" y="290" as="targetPoint"/>
                    </mxGeometry>
                </mxCell>
                <mxCell id="8" value="" style="edgeLabel;html=1;align=center;verticalAlign=middle;resizable=0;points=[];fontSize=12;" vertex="1" connectable="0" parent="7">
                    <mxGeometry x="0.1397" relative="1" as="geometry">
                        <mxPoint as="offset"/>
                    </mxGeometry>
                </mxCell>
                <mxCell id="9" value="" style="endArrow=classic;html=1;rounded=0;entryX=0.5;entryY=0;entryDx=0;entryDy=0;exitX=1;exitY=0.3333333333333333;exitDx=0;exitDy=0;exitPerimeter=0;edgeStyle=orthogonalEdgeStyle;fontSize=12;" edge="1" parent="1">
                    <mxGeometry width="50" height="50" relative="1" as="geometry">
                        <mxPoint x="-320" y="730.0033333333331" as="sourcePoint"/>
                        <mxPoint x="329" y="837" as="targetPoint"/>
                        <Array as="points">
                            <mxPoint x="-320" y="806.67"/>
                            <mxPoint x="329" y="806.67"/>
                        </Array>
                    </mxGeometry>
                </mxCell>
                <mxCell id="10" value="purchase a Book" style="ellipse;whiteSpace=wrap;html=1;fontSize=12;" vertex="1" parent="1">
                    <mxGeometry x="269" y="830" width="120" height="80" as="geometry"/>
                </mxCell>
                <mxCell id="11" value="Request to Purchase a Book" style="ellipse;whiteSpace=wrap;html=1;fontSize=12;" vertex="1" parent="1">
                    <mxGeometry x="120" y="880" width="120" height="80" as="geometry"/>
                </mxCell>
                <mxCell id="12" value="Check Previous purchased History" style="ellipse;whiteSpace=wrap;html=1;fontSize=12;" vertex="1" parent="1">
                    <mxGeometry x="425" y="880" width="120" height="80" as="geometry"/>
                </mxCell>
                <mxCell id="13" value="" style="endArrow=none;html=1;rounded=0;exitX=0.037;exitY=0.405;exitDx=0;exitDy=0;entryX=0.5;entryY=0;entryDx=0;entryDy=0;endFill=0;startArrow=block;startFill=0;fontSize=12;exitPerimeter=0;" edge="1" parent="1" source="10">
                    <mxGeometry width="50" height="50" relative="1" as="geometry">
                        <mxPoint x="314.43" y="852.52" as="sourcePoint"/>
                        <mxPoint x="207.43" y="887.52" as="targetPoint"/>
                    </mxGeometry>
                </mxCell>
                <mxCell id="14" value="" style="edgeLabel;html=1;align=center;verticalAlign=middle;resizable=0;points=[];fontSize=12;" vertex="1" connectable="0" parent="13">
                    <mxGeometry x="0.1366" relative="1" as="geometry">
                        <mxPoint as="offset"/>
                    </mxGeometry>
                </mxCell>
                <mxCell id="17" value="" style="endArrow=none;html=1;rounded=0;exitX=1;exitY=0.5;exitDx=0;exitDy=0;entryX=0.5;entryY=0;entryDx=0;entryDy=0;endFill=0;startArrow=block;startFill=0;fontSize=12;" edge="1" parent="1" source="10">
                    <mxGeometry width="50" height="50" relative="1" as="geometry">
                        <mxPoint x="380.57" y="845" as="sourcePoint"/>
                        <mxPoint x="469.57" y="880" as="targetPoint"/>
                    </mxGeometry>
                </mxCell>
                <mxCell id="18" value="" style="edgeLabel;html=1;align=center;verticalAlign=middle;resizable=0;points=[];fontSize=12;" vertex="1" connectable="0" parent="17">
                    <mxGeometry x="0.1397" relative="1" as="geometry">
                        <mxPoint as="offset"/>
                    </mxGeometry>
                </mxCell>
                <mxCell id="21" value="" style="endArrow=none;html=1;rounded=0;exitX=-0.006;exitY=0.425;exitDx=0;exitDy=0;entryX=1;entryY=0;entryDx=0;entryDy=0;endFill=0;startArrow=block;startFill=0;fontSize=12;exitPerimeter=0;" edge="1" parent="1" source="rwfCNAX4o9cNVtw4489R-13" target="rwfCNAX4o9cNVtw4489R-23">
                    <mxGeometry width="50" height="50" relative="1" as="geometry">
                        <mxPoint x="279.12" y="1030" as="sourcePoint"/>
                        <mxPoint x="210.00000000000006" y="1050" as="targetPoint"/>
                    </mxGeometry>
                </mxCell>
                <mxCell id="22" value="" style="edgeLabel;html=1;align=center;verticalAlign=middle;resizable=0;points=[];fontSize=12;" vertex="1" connectable="0" parent="21">
                    <mxGeometry x="0.1366" relative="1" as="geometry">
                        <mxPoint as="offset"/>
                    </mxGeometry>
                </mxCell>
            </root>
        </mxGraphModel>
    </diagram>
</mxfile>